<svg xmlns="http://www.w3.org/2000/svg" width="36" height="24" viewBox="0 0 36 24" fill="none">
<g clip-path="url(#clip0_11069_98)">
<path fill-rule="evenodd" clip-rule="evenodd" d="M28.7974 19.6506C28.2059 20.235 27.1505 20.8987 25.4178 20.9573C24.617 20.9844 23.681 20.9875 23.253 20.9875H13.9438C17.3307 17.704 20.2854 14.8403 20.6207 14.5153C20.9274 14.2178 21.6181 13.5583 22.2138 13.0229C23.5217 11.8477 24.6987 11.6112 25.5313 11.619C26.836 11.6309 28.0222 12.1626 28.87 13.0211C30.6844 14.8719 30.6413 17.8292 28.7974 19.6506ZM31.0274 10.9146C29.6364 9.49871 27.6976 8.60675 25.5423 8.60675C23.6792 8.60629 22.0751 9.24752 20.6743 10.3856C20.0641 10.882 19.4239 11.476 18.6179 12.257C18.3507 12.5164 13.0708 17.6293 9.6039 20.9866C9.12128 20.9849 8.42779 20.9779 7.8129 20.9573C6.08022 20.8987 5.02492 20.235 4.43333 19.6506C2.58959 17.8292 2.54646 14.8719 4.36087 13.0211C5.20855 12.1626 6.39532 11.6309 7.69952 11.619C8.51694 11.6157 9.6265 11.8527 10.8797 12.89C11.4781 13.3851 12.8069 14.5506 13.3899 15.0753C13.4196 15.1019 13.4553 15.1043 13.4901 15.0759L15.5469 13.073C15.5824 13.0386 15.5803 12.992 15.5452 12.9605C14.5562 12.068 13.1539 10.8194 12.3098 10.1921C11.4229 9.52984 10.4669 9.05869 9.43081 8.81027C9.44136 8.81259 9.45238 8.81398 9.46351 8.81617C10.1619 5.48818 13.1098 3.01629 16.6152 3.01629C19.535 3.01629 22.0962 4.7736 23.2512 7.26424C23.2691 7.30369 23.2999 7.31654 23.3316 7.30774C24.2 7.06951 25.241 6.93101 26.2468 7.00529C26.3446 7.01258 26.3827 6.95716 26.3511 6.86818C24.9315 2.86737 21.1102 0 16.6152 0C11.4592 0 7.18654 3.7841 6.41271 8.71308C6.41503 8.71308 6.41735 8.71355 6.41966 8.71308C4.77741 8.98765 3.31519 9.78288 2.20331 10.9146C-0.776652 13.9542 -0.730744 18.8114 2.32226 21.8038C3.54798 23.0052 5.03315 23.6588 6.61709 23.8798C7.22514 23.9663 8.06088 23.992 8.80711 23.9966C9.5057 24.0013 22.8351 24 23.3931 24C24.5164 24 25.2471 23.999 26.0322 23.9416C27.8325 23.8101 29.5335 23.1514 30.9085 21.8038C33.9615 18.8114 34.0075 13.9542 31.0274 10.9146Z" fill="#0052D9"/>
</g>
<defs>
<clipPath id="clip0_11069_98">
<rect width="90" height="24" fill="white"/>
</clipPath>
</defs>
</svg>